<svg width="48" height="48" viewBox="0 0 48 48" fill="none" xmlns="http://www.w3.org/2000/svg">
<path d="M28.624 15.9185C28.624 9.89246 25.7458 4.70269 23.5537 3.01824C23.5537 3.01824 23.385 2.92334 23.4025 3.16651C23.2222 14.8094 17.3901 17.9648 14.1863 22.2115C6.79006 32.0217 13.663 42.7749 20.6754 44.7618C24.5829 45.8769 19.7683 42.7927 19.1462 36.2862C18.3845 28.4333 28.624 22.431 28.624 15.9185Z" fill="#FCFDFF"/>
<path d="M31.9849 19.8866C31.9384 19.8569 31.8744 19.8332 31.8337 19.9103C31.7116 21.3753 30.2463 24.507 28.3857 27.3895C22.0768 37.1522 25.6702 41.8616 27.6937 44.3942C28.8683 45.8592 27.6937 44.3942 30.6243 42.8936C34.2468 40.6516 36.5959 36.7726 36.9448 32.4666C37.5204 25.5271 33.4386 21.1558 31.9849 19.8866Z" fill="#FCFDFF"/>
</svg>
