<svg width="48" height="48" viewBox="0 0 48 48" fill="none" xmlns="http://www.w3.org/2000/svg">
<path d="M28.624 14.9185C28.624 8.89246 25.7458 3.70269 23.5537 2.01824C23.5537 2.01824 23.385 1.92334 23.4025 2.16651C23.2222 13.8094 17.3901 16.9648 14.1863 21.2115C6.79006 31.0216 13.663 41.7749 20.6754 43.7618C24.5829 44.8769 19.7683 41.7927 19.1462 35.2862C18.3845 27.4333 28.624 21.431 28.624 14.9185V14.9185Z" fill="#1B2143"/>
<path d="M31.9849 18.8866C31.9384 18.8569 31.8744 18.8332 31.8337 18.9103C31.7116 20.3753 30.2463 23.507 28.3857 26.3895C22.0768 36.1522 25.6702 40.8616 27.6937 43.3942C28.8683 44.8592 27.6937 43.3942 30.6243 41.8936C34.2468 39.6516 36.5959 35.7726 36.9448 31.4666C37.5204 24.5271 33.4386 20.1558 31.9849 18.8866V18.8866Z" fill="#2CA6E0"/>
</svg>
