<svg width="65" height="64" viewBox="0 0 65 64" fill="none" xmlns="http://www.w3.org/2000/svg">
<path d="M19.578 26.893L32.0084 14.4676L44.4439 26.9031L51.6727 19.6693L32.0084 0L12.3442 19.6642L19.578 26.893Z" fill="#F3BA2F"/>
<path d="M0 32.0038L7.22876 24.77L14.4626 32.0038L7.22876 39.2326L0 32.0038Z" fill="#F3BA2F"/>
<path d="M19.578 37.1086L32.0084 49.539L44.4439 37.1035L51.6777 44.3272L32.0135 63.9965L12.3442 44.3424L19.578 37.1086Z" fill="#F3BA2F"/>
<path d="M49.5396 32.0038L56.7684 24.77L64.0022 31.9988L56.7684 39.2377L49.5396 32.0038Z" fill="#F3BA2F"/>
<path d="M39.3433 31.9987L32.0084 24.6587L26.5843 30.0828L25.9575 30.7046L24.6735 31.9886L32.0084 39.3184L39.3433 32.0037V31.9987Z" fill="#F3BA2F"/>
</svg>
