<svg fill="none" height="45" viewBox="0 0 236 45" width="236" xmlns="http://www.w3.org/2000/svg"><g fill="#fcfdff"><path clip-rule="evenodd" d="m25.9679 0-25.9679 44.7233h51.9359zm10.0982 35.6121-25.4242 8.8919 15.326-26.2839z" fill-rule="evenodd"/><path clip-rule="evenodd" d="m98.4834 10.2074h14.3136c6.397 0 11.22 4.7749 11.218 11.1058 0 6.3331-4.824 11.1079-11.218 11.1079h-9.141v11.9552h-5.1726zm5.1726 17.3601h9.141c3.474 0 6.095-2.6886 6.095-6.2522 0-3.6231-2.563-6.2521-6.095-6.2521h-9.141z" fill-rule="evenodd"/><path d="m137.324 15.0631h10.391c3.122 0 5.663 2.6333 5.663 5.8691 0 3.2634-2.539 5.9179-5.663 5.9179h-3.596l9.888 17.5283h5.765l-8.034-13.5581c4.091-1.6307 6.812-5.5518 6.812-9.886 0-5.9137-4.86-10.7247-10.835-10.7247h-15.563v34.1688h5.172z"/><path clip-rule="evenodd" d="m165.371 27.2929c0-9.9307 7.799-17.70707 17.758-17.70707 9.984 0 17.807 7.77847 17.807 17.70707s-7.823 17.7071-17.807 17.7071c-9.957 0-17.758-7.7764-17.758-17.7071zm5.123 0c0 7.0994 5.548 12.6598 12.635 12.6598 7.086 0 12.635-5.5604 12.635-12.6598 0-7.2463-5.432-12.7087-12.635-12.7087-7.204 0-12.635 5.4645-12.635 12.7087z" fill-rule="evenodd"/><path d="m230.828 10.2074v24.1935l-18.527-24.1935h-4.14v34.171h5.172v-24.2403l18.527 24.2403h4.14v-34.171z"/><path d="m78.8094 10.514 14.0437 33.6132h-5.9087l-11.1856-26.7756-11.1879 26.7756h-5.9086l14.0458-33.6132z"/></g></svg>