<svg width="188" height="36" viewBox="0 0 188 36" fill="none" xmlns="http://www.w3.org/2000/svg">
<path fill-rule="evenodd" clip-rule="evenodd" d="M20.6863 0L0 35.7786H41.3727L20.6863 0ZM28.7306 28.4897L8.47747 35.6032L20.6863 14.5761L28.7306 28.4897Z" fill="#3241F4"/>
<path fill-rule="evenodd" clip-rule="evenodd" d="M78.4529 8.16596H89.8551C94.9508 8.16596 98.793 11.9858 98.7913 17.0506C98.7913 22.117 94.9491 25.9369 89.8551 25.9369H82.5731V35.501H78.4529V8.16596ZM82.5731 22.054H89.8551C92.6229 22.054 94.7103 19.9031 94.7103 17.0523C94.7103 14.1538 92.669 12.0505 89.8551 12.0505H82.5731V22.054Z" fill="#3241F4"/>
<path d="M109.394 12.0505H117.672C120.158 12.0505 122.182 14.1571 122.182 16.7457C122.182 19.3565 120.16 21.4801 117.672 21.4801H114.807L122.684 35.5027H127.276L120.876 24.6562C124.135 23.3517 126.303 20.2148 126.303 16.7474C126.303 12.0165 122.431 8.16765 117.672 8.16765H105.273V35.5027H109.394V12.0505Z" fill="#3241F4"/>
<path fill-rule="evenodd" clip-rule="evenodd" d="M131.736 21.8343C131.736 13.8898 137.949 7.66866 145.882 7.66866C153.836 7.66866 160.067 13.8915 160.067 21.8343C160.067 29.7772 153.836 36 145.882 36C137.95 36 131.736 29.7789 131.736 21.8343ZM135.817 21.8343C135.817 27.5139 140.237 31.9622 145.882 31.9622C151.527 31.9622 155.947 27.5139 155.947 21.8343C155.947 16.0373 151.621 11.6673 145.882 11.6673C140.143 11.6673 135.817 16.039 135.817 21.8343Z" fill="#3241F4"/>
<path d="M183.88 8.16596V27.5207L169.121 8.16596H165.823V35.5027H169.943V16.1105L184.702 35.5027H188V8.16596H183.88Z" fill="#3241F4"/>
<path d="M62.7804 8.41118L73.9677 35.3018H69.2608L60.3502 13.8813L51.4379 35.3018H46.731L57.92 8.41118H62.7804Z" fill="#3241F4"/>
</svg>
