<svg width="20" height="20" viewBox="0 0 20 20" fill="none" xmlns="http://www.w3.org/2000/svg">
<path fill-rule="evenodd" clip-rule="evenodd" d="M2.07292 10.2645C2.25799 10.5609 5.65437 16 10.0001 16C14.3459 16 17.7423 10.5609 17.9273 10.2645L17.9301 10.26C18.0301 10.1 18.0301 9.9 17.9301 9.74L17.9273 9.73552C17.7423 9.43915 14.3459 4 10.0001 4C5.65437 4 2.25799 9.43913 2.07292 9.73552L2.07012 9.74C1.97012 9.9 1.97012 10.1 2.07012 10.26L2.07292 10.2645ZM10.0001 15C6.69012 15 3.81012 11.06 3.10012 10C3.81012 8.94 6.69012 5 10.0001 5C13.3101 5 16.1901 8.94 16.9001 10C16.1901 11.06 13.3101 15 10.0001 15ZM7.00012 10C7.00012 11.65 8.35012 13 10.0001 13C11.6501 13 13.0001 11.65 13.0001 10C13.0001 8.35 11.6501 7 10.0001 7C8.35012 7 7.00012 8.35 7.00012 10ZM8.00012 10C8.00012 8.9 8.90012 8 10.0001 8C11.1001 8 12.0001 8.9 12.0001 10C12.0001 11.1 11.1001 12 10.0001 12C8.90012 12 8.00012 11.1 8.00012 10Z" fill="#8A8B99"/>
</svg>
