<svg width="20" height="20" viewBox="0 0 20 20" fill="none" xmlns="http://www.w3.org/2000/svg">
<path d="M10 12C9.45 12 9 11.55 9 11V6C9 5.45 9.45 5 10 5C10.55 5 11 5.45 11 6V11C11 11.55 10.55 12 10 12Z" fill="#3241F4"/>
<path d="M11 14C11 14.5523 10.5523 15 10 15C9.44771 15 9 14.5523 9 14C9 13.4477 9.44771 13 10 13C10.5523 13 11 13.4477 11 14Z" fill="#3241F4"/>
<path fill-rule="evenodd" clip-rule="evenodd" d="M10 18C5.59 18 2 14.41 2 10C2 5.59 5.59 2 10 2C14.41 2 18 5.59 18 10C18 14.41 14.41 18 10 18ZM10 3C6.14 3 3 6.14 3 10C3 13.86 6.14 17 10 17C13.86 17 17 13.86 17 10C17 6.14 13.86 3 10 3Z" fill="#3241F4"/>
</svg>
