<svg width="20" height="20" viewBox="0 0 20 20" fill="none" xmlns="http://www.w3.org/2000/svg">
<path fill-rule="evenodd" clip-rule="evenodd" d="M10 14.61H5.76C5.63 14.61 5.5 14.56 5.41 14.46L3.28 12.34C3.08 12.14 3.08 11.83 3.28 11.63L6.10263 8.80738L6.10996 8.7999L6.11744 8.79257L11.76 3.15C11.96 2.95 12.27 2.95 12.47 3.15L16.71 7.39C16.91 7.59 16.91 7.9 16.71 8.1L10.35 14.46C10.26 14.55 10.13 14.61 10 14.61ZM4.34 11.98L6.46181 9.86092L10.0046 13.3954L9.79 13.61H5.96L4.34 11.98ZM10.71 12.69L7.17185 9.15179L12.12 4.21L15.65 7.75L10.71 12.69Z" fill="#8A8B99"/>
<path d="M3.5 16.8599H16.5C16.78 16.8599 17 16.6399 17 16.3599C17 16.0799 16.78 15.8599 16.5 15.8599H3.5C3.22 15.8599 3 16.0799 3 16.3599C3 16.6399 3.22 16.8599 3.5 16.8599Z" fill="#8A8B99"/>
</svg>
