<svg width="29" height="28" viewBox="0 0 29 28" fill="none" xmlns="http://www.w3.org/2000/svg">
<path d="M23.21 13.7725L18.73 9.2925C18.34 8.9025 17.71 8.9025 17.32 9.2925C16.93 9.6825 16.93 10.3125 17.32 10.7025L20.11 13.4925H6.5C5.95 13.4925 5.5 13.9425 5.5 14.4925C5.5 15.0425 5.95 15.4925 6.5 15.4925H20.06L17.32 18.2325C16.93 18.6225 16.93 19.2525 17.32 19.6425C17.52 19.8425 17.77 19.9325 18.03 19.9325C18.29 19.9325 18.54 19.8325 18.74 19.6425L23.22 15.1725C23.39 14.9925 23.5 14.7425 23.5 14.4825C23.5 14.2225 23.39 13.9625 23.21 13.7725Z" fill="#FCFDFF"/>
</svg>
