<svg fill="none" height="20" viewBox="0 0 20 20" width="20" xmlns="http://www.w3.org/2000/svg"><g fill="#8a8b99"><path d="m8 13h4c.28 0 .5-.22.5-.5s-.22-.5-.5-.5h-3.5v-1h3.5c.28 0 .5-.22.5-.5v-2c0-.28-.22-.5-.5-.5h-4c-.28 0-.5.22-.5.5s.22.5.5.5h3.5v1h-3.5c-.28 0-.5.22-.5.5v2c0 .28.22.5.5.5z"/><path clip-rule="evenodd" d="m4.5 16h11c.83 0 1.5-.67 1.5-1.5v-8c0-.83-.67-1.5-1.51-1.5h-.59c-.2-.58-.76-1-1.41-1s-1.2.42-1.41 1h-4.17c-.2-.58-.76-1-1.41-1s-1.21.42-1.41 1h-.59c-.83 0-1.5.67-1.5 1.5v8c0 .83.67 1.5 1.5 1.5zm-.5-9.5c0-.28.22-.5.5-.5h1c.28 0 .5-.22.5-.5s.22-.5.5-.5.5.22.5.5.22.5.5.5h5c.28 0 .5-.22.5-.5s.22-.5.5-.5.5.22.5.5.22.5.5.5h1c.28 0 .5.22.5.5v8c0 .28-.22.5-.5.5h-11c-.28 0-.5-.22-.5-.5z" fill-rule="evenodd"/></g></svg>