<svg width="28" height="28" viewBox="0 0 28 28" fill="none" xmlns="http://www.w3.org/2000/svg">
<path fill-rule="evenodd" clip-rule="evenodd" d="M9.24022 14C9.24022 11.52 11.2602 9.5 13.7402 9.5C16.2202 9.5 18.2402 11.52 18.2402 14C18.2402 16.48 16.2202 18.5 13.7402 18.5C11.2602 18.5 9.24022 16.48 9.24022 14ZM11.2402 14C11.2402 15.38 12.3602 16.5 13.7402 16.5C15.1202 16.5 16.2402 15.38 16.2402 14C16.2402 12.62 15.1202 11.5 13.7402 11.5C12.3602 11.5 11.2402 12.62 11.2402 14Z" fill="#FCFDFF"/>
<path fill-rule="evenodd" clip-rule="evenodd" d="M24.2402 15.17L24.7502 15.59C25.5102 16.21 25.7102 17.28 25.2102 18.14L23.0602 21.87C22.5502 22.74 21.5202 23.07 20.4902 22.69L20.1002 22.54C19.6602 22.37 19.1602 22.41 18.7502 22.65C18.3202 22.9 18.0402 23.31 17.9602 23.78L17.8702 24.33C17.7102 25.3 16.8802 26 15.9002 26H11.5902C10.6102 26 9.78021 25.3 9.61021 24.32L9.52021 23.77C9.44021 23.3 9.16021 22.9 8.75021 22.66C8.32021 22.41 7.83021 22.37 7.38021 22.54L6.99021 22.69C5.96021 23.08 4.93021 22.75 4.42021 21.87L2.27021 18.14C1.77021 17.28 1.97021 16.21 2.73021 15.59L3.24021 15.17C3.58021 14.89 3.78021 14.46 3.78021 14.01C3.78021 13.53 3.58021 13.11 3.24021 12.83L2.84021 12.5C1.99021 11.8 1.76021 10.74 2.27021 9.87L4.42021 6.13C4.91021 5.28 5.94021 4.91 6.85021 5.26L7.39021 5.46C7.83021 5.62 8.32021 5.58 8.73021 5.34C9.16021 5.1 9.44021 4.7 9.52021 4.24L9.59021 3.81C9.78021 2.73 10.5802 2 11.5902 2H15.9002C16.9102 2 17.7102 2.73 17.8902 3.81L17.9602 4.24C18.0402 4.7 18.3202 5.09 18.7302 5.33C19.1702 5.58 19.6502 5.62 20.0902 5.46L20.6302 5.26C21.5402 4.91 22.5702 5.28 23.0602 6.13L25.2102 9.86C25.7202 10.74 25.4902 11.8 24.6402 12.5L24.2402 12.83C23.9002 13.11 23.7002 13.53 23.7002 13.98C23.7002 14.47 23.9002 14.89 24.2402 15.17ZM21.2002 20.82C21.3102 20.86 21.3602 20.85 21.3602 20.85L23.4902 17.15L22.9802 16.73C22.1702 16.06 21.7102 15.08 21.7102 14.02C21.7102 12.94 22.1702 11.95 22.9802 11.29L23.3802 10.96C23.4702 10.89 23.4802 10.84 23.4802 10.84L21.3302 7.14L20.7902 7.34C19.7902 7.71 18.6802 7.62 17.7502 7.08C16.8002 6.53 16.1702 5.62 15.9902 4.57L15.9202 4.14C15.9002 4.03 15.8602 3.99 15.8602 3.99L11.6002 4C11.6002 4.00293 11.5985 4.00845 11.5958 4.01706C11.5893 4.03778 11.5773 4.07641 11.5702 4.14L11.5002 4.57C11.3302 5.62 10.6902 6.53 9.76021 7.07C8.81021 7.62 7.70021 7.72 6.70021 7.34L6.16021 7.14L4.01021 10.86C4.0144 10.86 4.02035 10.867 4.031 10.8796C4.04576 10.897 4.06955 10.9251 4.11021 10.96L4.51021 11.29C5.32021 11.95 5.78021 12.94 5.78021 13.99C5.78021 15.07 5.32021 16.06 4.51021 16.72L4.00021 17.14L6.15021 20.86C6.15455 20.8557 6.16644 20.8532 6.18505 20.8494C6.20929 20.8443 6.24495 20.837 6.29021 20.82L6.68021 20.67C7.09021 20.52 7.51021 20.44 7.94021 20.44C8.56021 20.44 9.18021 20.6 9.73021 20.92C10.6902 21.47 11.3202 22.39 11.5002 23.45L11.5902 24H15.9002L15.9902 23.45C16.1702 22.38 16.8102 21.47 17.7402 20.93C18.6902 20.38 19.8002 20.29 20.8102 20.67L21.2002 20.82Z" fill="#FCFDFF"/>
</svg>
