<svg width="20" height="20" viewBox="0 0 20 20" fill="none" xmlns="http://www.w3.org/2000/svg">
<path d="M8 13H12C12.28 13 12.5 12.78 12.5 12.5C12.5 12.22 12.28 12 12 12H8.5V11H12C12.28 11 12.5 10.78 12.5 10.5V8.5C12.5 8.22 12.28 8 12 8H8C7.72 8 7.5 8.22 7.5 8.5C7.5 8.78 7.72 9 8 9H11.5V10H8C7.72 10 7.5 10.22 7.5 10.5V12.5C7.5 12.78 7.72 13 8 13Z" fill="#3241F4"/>
<path fill-rule="evenodd" clip-rule="evenodd" d="M4.5 16H15.5C16.33 16 17 15.33 17 14.5V6.5C17 5.67 16.33 5 15.49 5H14.9C14.7 4.42 14.14 4 13.49 4C12.84 4 12.29 4.42 12.08 5H7.91C7.71 4.42 7.15 4 6.5 4C5.85 4 5.29 4.42 5.09 5H4.5C3.67 5 3 5.67 3 6.5V14.5C3 15.33 3.67 16 4.5 16ZM4 6.5C4 6.22 4.22 6 4.5 6H5.5C5.78 6 6 5.78 6 5.5C6 5.22 6.22 5 6.5 5C6.78 5 7 5.22 7 5.5C7 5.78 7.22 6 7.5 6H12.5C12.78 6 13 5.78 13 5.5C13 5.22 13.22 5 13.5 5C13.78 5 14 5.22 14 5.5C14 5.78 14.22 6 14.5 6H15.5C15.78 6 16 6.22 16 6.5V14.5C16 14.78 15.78 15 15.5 15H4.5C4.22 15 4 14.78 4 14.5V6.5Z" fill="#3241F4"/>
</svg>
