<svg width="28" height="28" viewBox="0 0 28 28" fill="none" xmlns="http://www.w3.org/2000/svg">
<path d="M6 11C6 11.5523 5.55228 12 5 12C4.44772 12 4 11.5523 4 11C4 10.4477 4.44772 10 5 10C5.55228 10 6 10.4477 6 11Z" fill="#525366"/>
<path d="M10 12C10.5523 12 11 11.5523 11 11C11 10.4477 10.5523 10 10 10C9.44771 10 9 10.4477 9 11C9 11.5523 9.44771 12 10 12Z" fill="#525366"/>
<path d="M16 11C16 11.5523 15.5523 12 15 12C14.4477 12 14 11.5523 14 11C14 10.4477 14.4477 10 15 10C15.5523 10 16 10.4477 16 11Z" fill="#525366"/>
<path fill-rule="evenodd" clip-rule="evenodd" d="M19.8276 23H23C24.65 23 26 21.65 26 20V6C26 4.35 24.65 3 23 3H9C7.35 3 6 4.35 6 6V7H3C1.35 7 0 8.35 0 10V22C0 23.65 1.35 25 3 25H17C18.2998 25 19.4134 24.1622 19.8276 23ZM2 22V15H18V22C18 22.55 17.55 23 17 23H3C2.45 23 2 22.55 2 22ZM18 13V10C18 9.45 17.55 9 17 9H3C2.45 9 2 9.45 2 10V13H18ZM20 21V10C20 8.35 18.65 7 17 7H8V6C8 5.45 8.45 5 9 5H23C23.55 5 24 5.45 24 6V20C24 20.55 23.55 21 23 21H20Z" fill="#525366"/>
</svg>
