<svg width="28" height="28" viewBox="0 0 28 28" fill="none" xmlns="http://www.w3.org/2000/svg">
<path d="M12.7898 17.3198C12.7898 17.8698 13.2398 18.3198 13.7898 18.3198C14.3398 18.3198 14.7898 17.8798 14.7898 17.3198V12.3198C14.7898 11.7698 14.3398 11.3198 13.7898 11.3198C13.2398 11.3198 12.7898 11.7698 12.7898 12.3198V17.3198Z" fill="#8A8B99"/>
<path fill-rule="evenodd" clip-rule="evenodd" d="M12.4498 23.7702C12.8698 23.9902 13.3298 24.0902 13.7898 24.0902C14.2498 24.0902 14.7098 23.9802 15.1398 23.7702L23.2298 19.7202C24.1698 19.2502 24.7998 18.3102 24.8798 17.2702L25.5798 8.2302C25.6498 7.2602 25.2498 6.3102 24.4998 5.6902C23.7498 5.0702 22.7398 4.8502 21.7998 5.1102L14.0598 7.2202C13.8798 7.2702 13.6998 7.2702 13.5298 7.2202L5.78982 5.1102C4.84982 4.8502 3.83982 5.0702 3.08982 5.6902C2.33982 6.3102 1.93982 7.2602 2.00982 8.2302L2.70982 17.2702C2.78982 18.3102 3.41982 19.2502 4.35982 19.7202L12.4498 23.7702ZM4.35982 7.2302C4.54982 7.0802 4.76982 7.0002 4.99982 7.0002C5.07982 7.0002 5.16982 7.0102 5.25982 7.0302L12.9898 9.1502C13.5098 9.2902 14.0498 9.2902 14.5698 9.1502L22.3098 7.0402C22.6298 6.9502 22.9598 7.0202 23.2098 7.2302C23.4598 7.4402 23.5998 7.7502 23.5698 8.0802L22.8698 17.1202C22.8398 17.4702 22.6298 17.7802 22.3198 17.9402L14.2298 21.9902C13.9598 22.1302 13.6198 22.1302 13.3398 21.9902L5.24982 17.9402C4.93982 17.7802 4.72982 17.4702 4.69982 17.1202L3.99982 8.0802C3.97982 7.7502 4.10982 7.4402 4.35982 7.2302Z" fill="#8A8B99"/>
</svg>
