<svg width="20" height="20" viewBox="0 0 20 20" fill="none" xmlns="http://www.w3.org/2000/svg">
<path d="M4.99 17.4101C5.95 17.8001 6.96 18.0001 8 18.0001C9.04 18.0001 10.05 17.8001 11 17.4201C12 17.0101 12.89 16.4201 13.65 15.6601C14.42 14.8901 15.01 14.0001 15.41 13.0101C15.8 12.0501 16 11.0401 16 10.0001C16 9.72012 15.78 9.50012 15.5 9.50012C15.22 9.50012 15 9.72012 15 10.0001C15 10.9101 14.83 11.7901 14.5 12.6301C14.15 13.5001 13.63 14.2801 12.96 14.9501C12.29 15.6201 11.51 16.1401 10.64 16.4901C8.96 17.1701 7.05 17.1701 5.37 16.4901C4.5 16.1401 3.72 15.6201 3.05 14.9501C2.38 14.2801 1.86 13.5001 1.51 12.6301C1.17 11.8001 1 10.9101 1 10.0001C1 9.09012 1.17 8.20012 1.51 7.36012C1.87 6.49012 2.38 5.71012 3.05 5.05012C3.72 4.38012 4.5 3.86012 5.36 3.51012C7.04 2.83012 8.95 2.83012 10.63 3.51012C11.5 3.86012 12.28 4.38012 12.95 5.05012C13.15 5.25012 13.46 5.25012 13.66 5.05012C13.86 4.85012 13.86 4.54012 13.66 4.34012C12.89 3.57012 12 2.98012 11.01 2.58012C9.09 1.80012 6.91 1.80012 4.99 2.58012C4 2.99012 3.11 3.58012 2.35 4.34012C1.58 5.11012 0.99 6.00012 0.59 6.99012C0.2 7.95012 0 8.96012 0 10.0001C0 11.0401 0.2 12.0501 0.59 13.0101C0.99 14.0001 1.58 14.8901 2.34 15.6501C3.11 16.4201 4 17.0101 4.99 17.4101Z" fill="#8A8B99"/>
<path d="M7.9 12.5H11.5C11.78 12.5 12 12.28 12 12C12 11.72 11.78 11.5 11.5 11.5H7.9C7.69 11.5 7.5 11.36 7.5 11.21V6.5C7.5 6.22 7.28 6 7 6C6.72 6 6.5 6.22 6.5 6.5V11.21C6.5 11.92 7.13 12.5 7.9 12.5Z" fill="#8A8B99"/>
</svg>
