<svg width="28" height="28" viewBox="0 0 28 28" fill="none" xmlns="http://www.w3.org/2000/svg">
<path d="M23 19.7C22.45 19.7 22 20.15 22 20.7V22C22 22.55 21.55 23 21 23H6C5.45 23 5 22.55 5 22V6C5 5.45 5.45 5 6 5H21C21.55 5 22 5.45 22 6V7.3C22 7.85 22.45 8.3 23 8.3C23.55 8.3 24 7.85 24 7.3V6C24 4.35 22.65 3 21 3H6C4.35 3 3 4.35 3 6V22C3 23.65 4.35 25 6 25H21C22.65 25 24 23.65 24 22V20.7C24 20.15 23.55 19.7 23 19.7Z" fill="#8A8B99"/>
<path d="M24.71 13.29L21.71 10.29C21.32 9.9 20.69 9.9 20.3 10.29C19.91 10.68 19.91 11.31 20.3 11.7L21.59 13H9C8.45 13 8 13.45 8 14C8 14.55 8.45 15 9 15H21.59L20.3 16.29C19.91 16.68 19.91 17.31 20.3 17.7C20.49 17.9 20.74 18 21 18C21.26 18 21.51 17.9 21.71 17.71L24.71 14.71C25.1 14.32 25.1 13.68 24.71 13.29Z" fill="#8A8B99"/>
</svg>
