<svg width="64" height="64" viewBox="0 0 64 64" fill="none" xmlns="http://www.w3.org/2000/svg">
<circle cx="32" cy="32" r="32" fill="url(#paint0_linear)"/>
<path fill-rule="evenodd" clip-rule="evenodd" d="M33.4398 50.3502L43.9421 44.5795C44.6757 45.4484 45.7732 46 47 46C49.21 46 51 44.21 51 42C51 40.1354 49.7258 38.5698 48.0002 38.1259V26.43C48.0002 25.33 47.4002 24.33 46.4502 23.81L35.8753 17.9952C35.9567 17.6771 36 17.3436 36 17C36 14.79 34.21 13 32 13C29.79 13 28 14.79 28 17C28 17.3423 28.0429 17.6745 28.1237 17.9916L17.56 23.8002C16.6 24.3302 16 25.3302 16 26.4302V38.1259C14.2743 38.5697 13 40.1353 13 42C13 44.21 14.79 46 17 46C18.2268 46 19.3241 45.4484 20.0577 44.5796L30.5598 50.3502C31.0098 50.6002 31.4998 50.7202 31.9998 50.7202C32.4998 50.7202 32.9898 50.5902 33.4398 50.3502ZM31 20.8741C30.2578 20.6832 29.599 20.2848 29.0893 19.7443L18.52 25.5602C18.2 25.7302 18 26.0702 18 26.4302V38.1259C18.6358 38.2894 19.2104 38.6052 19.6825 39.0321L25.0021 36.1507C25.0007 36.1206 25 36.0904 25 36.06V30.95C25 30.21 25.41 29.53 26.06 29.19L31 26.5422V20.8741ZM21 42C21 41.5497 20.9257 41.1168 20.7886 40.713L26.0949 37.8387L31.06 40.5C31.65 40.82 32.36 40.82 32.95 40.5L37.9101 37.8414L43.2114 40.7129C43.0743 41.1168 43 41.5497 43 42C43 42.2631 43.0254 42.5202 43.0738 42.7691L32.4798 48.5902C32.1798 48.7502 31.8198 48.7602 31.5198 48.5902L20.9262 42.7693C20.9746 42.5204 21 42.2632 21 42ZM44.3176 39.0321C44.7897 38.6051 45.3643 38.2893 46.0002 38.1258V26.43C46.0002 26.07 45.8002 25.73 45.4802 25.56L34.9083 19.7469C34.3989 20.2861 33.7411 20.6835 33 20.8741V26.5368L37.95 29.19C38.6 29.54 39.01 30.21 39.01 30.95V36.06C39.01 36.0921 39.0092 36.1241 39.0076 36.1559L44.3176 39.0321ZM32 19C33.1 19 34 18.1 34 17C34 15.9 33.1 15 32 15C30.9 15 30 15.9 30 17C30 17.3292 30.0806 17.6404 30.223 17.915C30.2324 17.9298 30.2414 17.9448 30.25 17.9602C30.2603 17.9785 30.2699 17.9969 30.2788 18.0154C30.6281 18.6036 31.27 19 32 19ZM45.1598 42.7702C45.19 42.8238 45.2145 42.879 45.2336 42.9352C45.5707 43.5673 46.2373 44 47 44C48.1 44 49 43.1 49 42C49 40.9 48.1 40 47 40C45.9 40 45 40.9 45 42C45 42.2614 45.0508 42.5115 45.1431 42.7409C45.1488 42.7506 45.1544 42.7603 45.1598 42.7702ZM16.9827 40.0001C15.8906 40.0095 15 40.9058 15 42C15 43.1 15.9 44 17 44C17.77 44 18.442 43.559 18.7759 42.9171C18.7931 42.8673 18.8143 42.8182 18.8398 42.7702C18.8454 42.7603 18.8511 42.7506 18.8569 42.7409C18.9492 42.5115 19 42.2614 19 42C19 40.9058 18.1094 40.0095 17.0173 40.0001L17 40.0002L16.9827 40.0001Z" fill="#FCFDFF"/>
<defs>
<linearGradient id="paint0_linear" x1="32" y1="0" x2="32" y2="64" gradientUnits="userSpaceOnUse">
<stop stop-color="#5C6FFF"/>
<stop offset="1" stop-color="#3241F4"/>
</linearGradient>
</defs>
</svg>
