<svg width="20" height="20" viewBox="0 0 20 20" fill="none" xmlns="http://www.w3.org/2000/svg">
<path d="M16.5 10.5C16.5 10.78 16.72 11 17 11C17.28 11 17.5 10.78 17.5 10.5V4C17.5 3.17 16.83 2.5 16 2.5H9.5C9.22 2.5 9 2.72 9 3C9 3.28 9.22 3.5 9.5 3.5H16C16.28 3.5 16.5 3.72 16.5 4V10.5Z" fill="#3241F4"/>
<path d="M8 12H6.5C6.22 12 6 11.78 6 11.5C6 11.22 6.22 11 6.5 11H8V9.5C8 9.22 8.22 9 8.5 9C8.78 9 9 9.22 9 9.5V11H10.5C10.78 11 11 11.22 11 11.5C11 11.78 10.78 12 10.5 12H9V13.5C9 13.78 8.78 14 8.5 14C8.22 14 8 13.78 8 13.5V12Z" fill="#3241F4"/>
<path fill-rule="evenodd" clip-rule="evenodd" d="M4 17.5H13C13.83 17.5 14.5 16.83 14.5 16V7C14.5 6.17 13.83 5.5 13 5.5H4C3.17 5.5 2.5 6.17 2.5 7V16C2.5 16.83 3.17 17.5 4 17.5ZM3.5 7C3.5 6.72 3.72 6.5 4 6.5H13C13.28 6.5 13.5 6.72 13.5 7V16C13.5 16.28 13.28 16.5 13 16.5H4C3.72 16.5 3.5 16.28 3.5 16V7Z" fill="#3241F4"/>
</svg>
