<svg width="28" height="28" viewBox="0 0 28 28" fill="none" xmlns="http://www.w3.org/2000/svg">
<path fill-rule="evenodd" clip-rule="evenodd" d="M3.11 24H17.89C18.72 24 19.5 23.68 20.09 23.08C20.68 22.49 21 21.71 21 20.88V14.55C21 14 20.55 13.55 20 13.55C19.45 13.55 19 14 19 14.55V20.88C19 21.18 18.89 21.46 18.68 21.67C18.47 21.88 18.19 22 17.89 22H3.11C2.81 22 2.54 21.88 2.33 21.68C2.12 21.47 2 21.19 2 20.89V6.11C2 5.81 2.12 5.54 2.32 5.33C2.53 5.12 2.81 5 3.11 5H15.67C16.22 5 16.67 4.55 16.67 4C16.67 3.45 16.22 3 15.67 3H3.11C2.28 3 1.5 3.32 0.91 3.91C0.32 4.5 0 5.28 0 6.11V20.89C0 21.72 0.32 22.5 0.91 23.09C1.5 23.68 2.28 24 3.11 24ZM8.78957 18.2098C8.98957 18.3998 9.23957 18.4998 9.49957 18.4998C9.75957 18.4998 10.0096 18.3998 10.1896 18.2098L20.1896 8.20982C20.5796 7.81982 20.5796 7.18982 20.1896 6.79982C19.7996 6.40982 19.1696 6.40982 18.7796 6.79982L9.48957 16.0898L5.69957 12.2998C5.30957 11.9098 4.67957 11.9098 4.28957 12.2998C3.89957 12.6898 3.89957 13.3198 4.28957 13.7098L8.78957 18.2098Z" fill="#FCFDFF"/>
</svg>
