<svg width="28" height="28" viewBox="0 0 28 28" fill="none" xmlns="http://www.w3.org/2000/svg">
<path d="M22.71 13.7725L18.23 9.2925C17.84 8.9025 17.21 8.9025 16.82 9.2925C16.43 9.6825 16.43 10.3125 16.82 10.7025L19.61 13.4925H6C5.45 13.4925 5 13.9425 5 14.4925C5 15.0425 5.45 15.4925 6 15.4925H19.56L16.82 18.2325C16.43 18.6225 16.43 19.2525 16.82 19.6425C17.02 19.8425 17.27 19.9325 17.53 19.9325C17.79 19.9325 18.04 19.8325 18.24 19.6425L22.72 15.1725C22.89 14.9925 23 14.7425 23 14.4825C23 14.2225 22.89 13.9625 22.71 13.7725Z" fill="#CDCED4"/>
</svg>
