<svg width="24" height="24" viewBox="0 0 24 24" fill="none" xmlns="http://www.w3.org/2000/svg">
<path fill-rule="evenodd" clip-rule="evenodd" d="M17.9706 7.07107C18.3611 6.68054 18.3611 6.04738 17.9706 5.65685C17.5801 5.26633 16.9469 5.26633 16.5564 5.65685L12.3137 9.89953L8.07105 5.65689C7.68052 5.26636 7.04736 5.26636 6.65684 5.65689C6.26631 6.04741 6.26631 6.68057 6.65684 7.0711L10.8995 11.3137L6.65687 15.5563C6.26634 15.9469 6.26634 16.58 6.65687 16.9706C7.04739 17.3611 7.68055 17.3611 8.07108 16.9706L12.3137 12.728L16.5563 16.9706C16.9469 17.3611 17.58 17.3611 17.9705 16.9706C18.3611 16.5801 18.3611 15.9469 17.9705 15.5564L13.7279 11.3137L17.9706 7.07107Z" fill="#3241F4"/>
</svg>
