<svg width="64" height="64" viewBox="0 0 64 64" fill="none" xmlns="http://www.w3.org/2000/svg">
<circle cx="32" cy="32" r="32" fill="url(#paint0_linear)"/>
<path d="M26 44C29.3137 44 32 41.3137 32 38C32 34.6863 29.3137 32 26 32C22.6863 32 20 34.6863 20 38C20 41.3137 22.6863 44 26 44Z" fill="#FCFDFF"/>
<path d="M39.9998 28.7498C39.9998 29.2998 40.4498 29.7498 40.9998 29.7498C41.5498 29.7498 41.9998 29.2998 41.9998 28.7498C41.9998 21.0598 34.3198 19.0498 34.2398 19.0298C33.7098 18.8998 33.1698 19.2298 33.0298 19.7598C32.8898 20.2898 33.2198 20.8298 33.7498 20.9698C34.0098 21.0298 39.9998 22.6398 39.9998 28.7498Z" fill="#FCFDFF"/>
<path fill-rule="evenodd" clip-rule="evenodd" d="M43.75 49.0001H24.35C18.66 49.0001 13.83 44.9101 13.1 39.4901C12.83 37.4701 13.11 35.4301 13.93 33.6001C15.09 30.9501 17.29 28.8301 19.97 27.7701C19.72 23.8601 21.19 20.2901 24.07 17.6901C27.3 14.7801 31.89 13.4701 36.36 14.1901C42.53 15.1901 47.4 20.4701 47.95 26.7401C48.19 29.4201 47.66 32.0901 46.42 34.4601C46.28 34.7301 46.13 35.0001 45.97 35.2601C49.07 36.1701 51.15 39.0701 51 42.3201C50.82 46.0701 47.64 49.0001 43.75 49.0001ZM33.92 16.0001C30.76 16.0001 27.69 17.1301 25.41 19.1801C22.99 21.3701 21.75 24.3601 21.94 27.6201C21.99 28.5201 21.49 29.3301 20.7 29.6401C18.51 30.5001 16.71 32.2401 15.76 34.4101C15.1 35.9101 14.86 37.5701 15.09 39.2301C15.68 43.6601 19.66 47.0001 24.35 47.0001H43.76C46.53 47.0001 48.88 44.8601 49 42.2401C49.11 39.9101 47.62 37.8401 45.39 37.2001C44.8 37.0301 44.33 36.6001 44.1 36.0301C43.87 35.4501 43.93 34.7701 44.26 34.2301C44.4 34.0101 44.53 33.7801 44.65 33.5401C45.71 31.5101 46.16 29.2201 45.96 26.9201C45.49 21.5401 41.32 17.0201 36.04 16.1701C35.33 16.0501 34.62 16.0001 33.92 16.0001Z" fill="#FCFDFF"/>
<defs>
<linearGradient id="paint0_linear" x1="32" y1="0" x2="32" y2="64" gradientUnits="userSpaceOnUse">
<stop stop-color="#FF4949"/>
<stop offset="1" stop-color="#F12222"/>
</linearGradient>
</defs>
</svg>
