<svg width="20" height="20" viewBox="0 0 20 20" fill="none" xmlns="http://www.w3.org/2000/svg">
<path d="M9.50047 7.51555L9.50024 7.5V4.5C9.50024 4.22 9.72024 4 10.0002 4C10.2802 4 10.5002 4.22 10.5002 4.5V7.5L10.5 7.51555C11.9907 7.60791 13.3586 8.10063 14.5002 8.69518V6.5C14.5002 6.22 14.7202 6 15.0002 6C15.2802 6 15.5002 6.22 15.5002 6.5V9.27274C16.9053 10.1652 17.7903 11.0751 17.8602 11.15C18.0502 11.35 18.0402 11.67 17.8502 11.86C17.6502 12.05 17.3302 12.04 17.1402 11.85C17.1102 11.81 13.8702 8.5 10.0002 8.5C6.12021 8.5 2.89021 11.81 2.86021 11.85C2.76021 11.95 2.63021 12 2.50021 12C2.38021 12 2.25021 11.95 2.15021 11.86C1.95021 11.67 1.94021 11.35 2.14021 11.15C2.21011 11.0751 3.0951 10.1652 4.50024 9.2727V6.5C4.50024 6.22 4.72024 6 5.00024 6C5.28024 6 5.50024 6.22 5.50024 6.5V8.69515C6.64191 8.1006 8.00975 7.6079 9.50047 7.51555Z" fill="#8A8B99"/>
<path fill-rule="evenodd" clip-rule="evenodd" d="M7.00024 13C7.00024 14.65 8.35024 16 10.0002 16C11.6502 16 13.0002 14.65 13.0002 13C13.0002 11.35 11.6502 10 10.0002 10C8.35024 10 7.00024 11.35 7.00024 13ZM8.00024 13C8.00024 11.9 8.90024 11 10.0002 11C11.1002 11 12.0002 11.9 12.0002 13C12.0002 14.1 11.1002 15 10.0002 15C8.90024 15 8.00024 14.1 8.00024 13Z" fill="#8A8B99"/>
</svg>
