<svg fill="none" height="28" viewBox="0 0 28 28" width="28" xmlns="http://www.w3.org/2000/svg"><g clip-rule="evenodd" fill="#8a8b99" fill-rule="evenodd"><path d="m9.24022 14c0-2.48 2.01998-4.5 4.49998-4.5s4.5 2.02 4.5 4.5-2.02 4.5-4.5 4.5-4.49998-2.02-4.49998-4.5zm1.99998 0c0 1.38 1.12 2.5 2.5 2.5s2.5-1.12 2.5-2.5-1.12-2.5-2.5-2.5-2.5 1.12-2.5 2.5z"/><path d="m24.2402 15.17.51.42c.76.62.96 1.69.46 2.55l-2.15 3.73c-.51.87-1.54 1.2-2.57.82l-.39-.15c-.44-.17-.94-.13-1.35.11-.43.25-.71.66-.79 1.13l-.09.55c-.16.97-.99 1.67-1.97 1.67h-4.31c-.98 0-1.80999-.7-1.97999-1.68l-.09-.55c-.08-.47-.36-.87-.77-1.11-.43-.25-.92-.29-1.37-.12l-.39.15c-1.03.39-2.06.06-2.57-.82l-2.15-3.73c-.5-.86-.3-1.93.46-2.55l.51-.42c.34-.28.54-.71.54-1.16 0-.48-.2-.9-.54-1.18l-.4-.33c-.85-.7-1.08-1.76-.57-2.63l2.15-3.74c.49-.85 1.52-1.22 2.43-.87l.54.2c.44.16.93.12 1.34-.12.43-.24.71-.64.79-1.1l.07-.43c.19-1.08.98999-1.81 1.99999-1.81h4.31c1.01 0 1.81.73 1.99 1.81l.07.43c.08.46.36.85.77 1.09.44.25.92.29 1.36.13l.54-.2c.91-.35 1.94.02 2.43.87l2.15 3.73c.51.88.28 1.94-.57 2.64l-.4.33c-.34.28-.54.7-.54 1.15 0 .49.2.91.54 1.19zm-3.04 5.65c.11.04.16.03.16.03l2.13-3.7-.51-.42c-.81-.67-1.27-1.65-1.27-2.71 0-1.08.46-2.07 1.27-2.73l.4-.33c.09-.07.1-.12.1-.12l-2.15-3.7-.54.2c-1 .37-2.11.28-3.04-.26-.95-.55-1.58-1.46-1.76-2.51l-.07-.43c-.02-.11-.06-.15-.06-.15l-4.26.01c0 .00293-.0017.00845-.0044.01706-.0065.02072-.0185.05935-.0256.12294l-.07.43c-.17 1.05-.81 1.96-1.73999 2.5-.95.55-2.06.65-3.06.27l-.54-.2-2.15 3.72c.00419 0 .01014.007.02079.0196.01476.0174.03855.0455.07921.0804l.4.33c.81.66 1.27 1.65 1.27 2.7 0 1.08-.46 2.07-1.27 2.73l-.51.42 2.15 3.72c.00434-.0043.01623-.0068.03484-.0106.02424-.0051.0599-.0124.10516-.0294l.39-.15c.41-.15.83-.23 1.26-.23.62 0 1.24.16 1.79.48.95999.55 1.58999 1.47 1.76999 2.53l.09.55h4.31l.09-.55c.18-1.07.82-1.98 1.75-2.52.95-.55 2.06-.64 3.07-.26z"/></g></svg>