<svg width="64" height="64" viewBox="0 0 64 64" fill="none" xmlns="http://www.w3.org/2000/svg">
<circle cx="32" cy="32" r="32" fill="url(#paint0_linear)"/>
<path d="M23.8799 40.1199C24.4599 40.7099 25.2299 40.9999 25.9999 40.9999C26.7699 40.9999 27.5399 40.7099 28.1199 40.1199L32.1199 36.1199C33.2899 34.9499 33.2899 33.0499 32.1199 31.8799C30.9499 30.7099 29.0499 30.7099 27.8799 31.8799L25.9999 33.7599L24.1199 31.8799C22.9499 30.7099 21.0499 30.7099 19.8799 31.8799C18.7099 33.0499 18.7099 34.9499 19.8799 36.1199L23.8799 40.1199Z" fill="#FCFDFF"/>
<path d="M29 26H23C22.45 26 22 25.55 22 25C22 24.45 22.45 24 23 24H29C29.55 24 30 24.45 30 25C30 25.55 29.55 26 29 26Z" fill="#FCFDFF"/>
<path d="M42 40C42 40.55 42.45 41 43 41C43.55 41 44 40.55 44 40V32C44 31.45 43.55 31 43 31C42.45 31 42 31.45 42 32V40Z" fill="#FCFDFF"/>
<path fill-rule="evenodd" clip-rule="evenodd" d="M14 19V46C13.45 46 13 46.45 13 47C13 47.55 13.45 48 14 48H50C50.55 48 51 47.55 51 47C51 46.45 50.55 46 50 46V27C50 25.35 48.65 24 47 24H37V19C37 17.35 35.65 16 34 16H17C15.35 16 14 17.35 14 19ZM35 46H16V19C16 18.45 16.45 18 17 18H34C34.55 18 35 18.45 35 19V46ZM48 27V46H37V26H47C47.55 26 48 26.45 48 27Z" fill="#FCFDFF"/>
<defs>
<linearGradient id="paint0_linear" x1="32" y1="0" x2="32" y2="64" gradientUnits="userSpaceOnUse">
<stop stop-color="#37FF63"/>
<stop offset="1" stop-color="#1AEC22"/>
</linearGradient>
</defs>
</svg>
