<svg width="64" height="64" viewBox="0 0 64 64" fill="none" xmlns="http://www.w3.org/2000/svg">
<circle cx="32" cy="32" r="32" fill="url(#paint0_linear)"/>
<path d="M31.45 28.63L23.45 23.3C23.17 23.11 23 22.8 23 22.46V20C23 19.45 23.45 19 24 19H40C40.55 19 41 19.45 41 20V22.46C41 22.8 40.83 23.11 40.56 23.3L32.56 28.63C32.22 28.85 31.79 28.85 31.45 28.63Z" fill="#FCFDFF"/>
<path d="M37 44H27C26.45 44 26 43.55 26 43C26 42.45 26.45 42 27 42H37C37.55 42 38 42.45 38 43C38 43.55 37.55 44 37 44Z" fill="#FCFDFF"/>
<path d="M27 40H37C37.55 40 38 39.55 38 39C38 38.45 37.55 38 37 38H27C26.45 38 26 38.45 26 39C26 39.55 26.45 40 27 40Z" fill="#FCFDFF"/>
<path fill-rule="evenodd" clip-rule="evenodd" d="M19 49H45C46.65 49 48 47.65 48 46V41.58C48 40.57 47.49 39.63 46.64 39.07L37.11 32.84C36.83 32.65 36.66 32.35 36.66 32C36.66 31.65 36.82 31.35 37.11 31.16L46.64 24.93C47.49 24.38 48 23.44 48 22.42V18C48 16.35 46.65 15 45 15H19C17.35 15 16 16.35 16 18V22.42C16 23.43 16.51 24.37 17.36 24.93L26.89 31.16C27.17 31.35 27.34 31.65 27.34 32C27.34 32.35 27.18 32.65 26.89 32.84L17.36 39.07C16.51 39.62 16 40.56 16 41.58V46C16 47.65 17.35 49 19 49ZM18 18C18 17.45 18.45 17 19 17H45C45.55 17 46 17.45 46 18V22.42C46 22.76 45.83 23.07 45.55 23.26L36.02 29.49C35.17 30.04 34.66 30.98 34.66 32C34.66 33.02 35.17 33.95 36.02 34.51L45.55 40.74C45.83 40.93 46 41.24 46 41.58V46C46 46.55 45.55 47 45 47H19C18.45 47 18 46.55 18 46V41.58C18 41.24 18.17 40.93 18.45 40.74L27.98 34.51C28.83 33.96 29.34 33.02 29.34 32C29.34 30.98 28.83 30.05 27.98 29.49L18.45 23.26C18.17 23.07 18 22.76 18 22.42V18Z" fill="#FCFDFF"/>
<defs>
<linearGradient id="paint0_linear" x1="32" y1="0" x2="32" y2="64" gradientUnits="userSpaceOnUse">
<stop stop-color="#FFAF37"/>
<stop offset="1" stop-color="#F0960E"/>
</linearGradient>
</defs>
</svg>
